<svg width="192" height="192" viewBox="0 0 192 192" fill="none" xmlns="http://www.w3.org/2000/svg">
  <rect width="192" height="192" rx="24" fill="#1F2937"/>
  <g fill="#FFFFFF">
    <!-- Music note 1 -->
    <path d="M144,48v72c0,8.8-7.2,16-16,16s-16-7.2-16-16s7.2-16,16-16c4,0,0,0,8v-48c0-4.4,3.6-8,8-8s8,3.6,8,8L144,48z"/>
    <circle cx="64" cy="128" r="16"/>
    <!-- Music note 2 -->
    <path d="M96,80v48c0,8.8-7.2,16-16,16s-16-7.2-16-16s7.2-16,16-16c4,0,0,0,8v-32c0-4.4,3.6-8,8-8s8,3.6,8,8L96,80z"/>
    <!-- Waveform visualization lines -->
    <rect x="48" y="160" width="4" height="16" rx="2"/>
    <rect x="56" y="156" width="4" height="24" rx="2"/>
    <rect x="64" y="152" width="4" height="32" rx="2"/>
    <rect x="72" y="158" width="4" height="20" rx="2"/>
    <rect x="80" y="154" width="4" height="28" rx="2"/>
    <rect x="88" y="160" width="4" height="16" rx="2"/>
    <rect x="96" y="156" width="4" height="24" rx="2"/>
    <rect x="104" y="158" width="4" height="20" rx="2"/>
    <rect x="112" y="152" width="4" height="32" rx="2"/>
    <rect x="120" y="156" width="4" height="24" rx="2"/>
    <rect x="128" y="160" width="4" height="16" rx="2"/>
    <rect x="136" y="154" width="4" height="28" rx="2"/>
  </g>
</svg>